<!DOCTYPE svg PUBLIC "-//W3C//DTD SVG 1.1//EN" "http://www.w3.org/Graphics/SVG/1.1/DTD/svg11.dtd">
<!-- Uploaded to: SVG Repo, www.svgrepo.com, Transformed by: SVG Repo Mixer Tools -->
<svg fill="#f1f1f1" height="64px" width="64px" version="1.1" id="Layer_1" xmlns="http://www.w3.org/2000/svg" xmlns:xlink="http://www.w3.org/1999/xlink" viewBox="0 0 512 512" xml:space="preserve">
<g id="SVGRepo_bgCarrier" stroke-width="0"/>
<g id="SVGRepo_tracerCarrier" stroke-linecap="round" stroke-linejoin="round"/>
<g id="SVGRepo_iconCarrier"> <g> <g> <path d="M326.437,74.286c-19.984-5.228-40.806-7.878-61.885-7.878c-26.406,0-52.111,4.107-76.499,12.213l-45.442-58.424 c-2.102-2.704-5.692-3.771-8.93-2.662c-3.24,1.112-5.415,4.158-5.415,7.583v83.829c-23.529,16.927-43.384,38.707-56.585,62.051 l-37.971-0.188c-0.049,0.001-0.098,0-0.146,0c-13.559,0.182-25.013,11.195-25.013,24.049v70.211 c0,6.497,2.778,12.908,7.621,17.592c4.79,4.63,11.183,7.186,17.619,7.007h19.077c3.191,13.279,8.154,26.215,14.79,38.54 c1.447,2.689,4.21,4.218,7.065,4.218c1.283,0,2.585-0.309,3.794-0.96c3.898-2.099,5.357-6.961,3.258-10.859 c-6.947-12.902-11.854-26.526-14.584-40.493c-0.734-3.764-4.032-6.48-7.867-6.48H33.67c-0.09,0-0.18,0.001-0.269,0.004 c-2.164,0.065-4.363-0.841-6.083-2.505c-1.737-1.678-2.733-3.889-2.733-6.064V194.86c0-4.039,4.428-7.918,9.129-8.015 l42.672,0.211c2.958-0.012,5.742-1.637,7.135-4.284c12.549-23.857,32.903-46.252,57.31-63.063c2.172-1.495,3.47-3.965,3.47-6.603 V48.484l34.621,44.513c2.129,2.739,5.777,3.799,9.045,2.621c24.269-8.742,50.036-13.176,76.584-13.176 c19.71,0,39.167,2.474,57.829,7.356c4.281,1.119,8.662-1.445,9.784-5.727C333.284,79.788,330.72,75.407,326.437,74.286z"/> </g> </g> <g> <g> <path d="M494.898,119.182c0-27.995-22.777-50.772-50.772-50.772c-4.428,0-8.017,3.589-8.017,8.017s3.588,8.017,8.017,8.017 c19.156,0,34.739,15.584,34.739,34.739c0,18.524-14.574,33.706-32.86,34.687c-18.625-26.021-44.566-47.781-75.278-63.04 c-3.968-1.972-8.778-0.354-10.748,3.612s-0.353,8.777,3.613,10.747c60.554,30.088,98.17,85.856,98.17,145.537 c0,92.792-88.469,168.282-197.211,168.282c-62.062,0-121.676-24.603-159.468-65.812c-2.994-3.262-8.065-3.482-11.327-0.49 c-3.263,2.992-3.482,8.064-0.49,11.327c13.715,14.956,30.301,28.128,48.833,38.883l11.977,59.885 c0.749,3.748,4.039,6.444,7.861,6.444h68.409c3.821,0,7.111-2.697,7.861-6.444l5.724-28.62c6.855,0.56,13.737,0.859,20.619,0.859 c12.647,0,25.127-0.951,37.333-2.804l6.113,30.564c0.749,3.748,4.039,6.444,7.861,6.444h68.409c3.821,0,7.111-2.697,7.861-6.444 l14.909-74.549c0.028-0.138,0.041-0.275,0.061-0.411c2.649-2.062,5.248-4.185,7.794-6.372 c40.566-34.846,62.904-81.279,62.904-130.744c0-28.594-7.671-56.702-22.267-82.077 C478.049,163.456,494.898,143.256,494.898,119.182z M223.775,453.211H168.51l-8.16-40.802c2.575,1.197,5.168,2.367,7.797,3.473 c18.816,7.918,39.052,13.471,59.796,16.492L223.775,453.211z M377.696,453.211h-55.265l-4.781-23.907 c25.288-5.575,49.126-15.138,70.491-28.318L377.696,453.211z"/> </g> </g> <g> <g> <path d="M318.458,103.048c-17.388-5.962-35.525-8.985-53.906-8.985c-18.383,0-36.52,3.023-53.907,8.984 c-4.188,1.437-6.42,5.995-4.983,10.183c1.142,3.327,4.253,5.419,7.583,5.419c0.863,0,1.74-0.14,2.602-0.435 c15.71-5.387,32.097-8.118,48.706-8.118c16.608,0,32.996,2.731,48.706,8.118c4.184,1.434,8.748-0.794,10.183-4.983 C324.877,109.043,322.646,104.483,318.458,103.048z"/> </g> </g> <g> <g> <path d="M136.551,137.353c-13.703,0-24.852,11.149-24.852,24.852c0,13.703,11.149,24.852,24.852,24.852 c13.703,0,24.852-11.149,24.852-24.852C161.403,148.501,150.254,137.353,136.551,137.353z M136.551,171.023 c-4.862,0-8.818-3.956-8.818-8.818c0-4.862,3.956-8.818,8.818-8.818s8.818,3.956,8.818,8.818 C145.37,167.067,141.414,171.023,136.551,171.023z"/> </g> </g> <g> <g> <path d="M67.875,213.779c-4.428,0-8.017,3.589-8.017,8.017v17.102c0,4.427,3.588,8.017,8.017,8.017 c4.428,0,8.017-3.589,8.017-8.017v-17.102C75.891,217.368,72.303,213.779,67.875,213.779z"/> </g> </g> <g> <g> <path d="M42.221,213.779c-4.428,0-8.017,3.589-8.017,8.017v17.102c0,4.427,3.588,8.017,8.017,8.017 c4.428,0,8.017-3.589,8.017-8.017v-17.102C50.238,217.368,46.65,213.779,42.221,213.779z"/> </g> </g> <g> <g> <path d="M332.27,231.728l-68.409-34.205c-2.256-1.129-4.915-1.129-7.171,0l-68.409,34.205c-2.715,1.358-4.432,4.133-4.432,7.17 v111.165c0,4.427,3.588,8.017,8.017,8.017h51.307c4.428,0,8.017-3.589,8.017-8.017v-51.841h18.171v51.841 c0.001,4.427,3.589,8.017,8.018,8.017h51.307c4.428,0,8.017-3.589,8.017-8.017V238.898 C336.701,235.861,334.986,233.085,332.27,231.728z M320.668,342.046h-35.273v-51.841c0-4.427-3.588-8.017-8.017-8.017h-34.205 c-4.428,0-8.017,3.589-8.017,8.017v51.841h-35.273v-98.194l60.392-30.196l60.393,30.196V342.046z"/> </g> </g> <g> <g> <path d="M358.178,214.758l-94.063-51.307c-2.394-1.306-5.284-1.306-7.679,0l-94.063,51.307c-3.886,2.12-5.319,6.99-3.198,10.876 c2.121,3.887,6.987,5.321,10.877,3.199l90.223-49.213l90.223,49.213c1.22,0.666,2.534,0.98,3.832,0.98 c2.839,0,5.589-1.511,7.045-4.179C363.495,221.747,362.064,216.877,358.178,214.758z"/> </g> </g> <g> <g> <path d="M65.737,55.582h-6.948V33.136h17.637c4.428,0,8.017-3.589,8.017-8.017c0-4.427-3.588-8.017-8.017-8.017H58.789V8.017 C58.789,3.589,55.201,0,50.772,0c-4.428,0-8.017,3.589-8.017,8.017v9.086h-6.948c-10.314,0-18.706,8.392-18.706,18.706V52.91 c0,10.314,8.392,18.706,18.706,18.706h6.948v22.447H25.119c-4.428,0-8.017,3.589-8.017,8.017s3.588,8.017,8.017,8.017h17.637 v9.086c0,4.427,3.588,8.017,8.017,8.017c4.428,0,8.017-3.589,8.017-8.017v-9.086h6.948c10.314,0,18.706-8.392,18.706-18.706 V74.288C84.443,63.974,76.051,55.582,65.737,55.582z M42.756,55.582h-6.948c-1.474,0-2.672-1.199-2.672-2.672V35.808 c0-1.473,1.198-2.672,2.672-2.672h6.948V55.582z M68.409,91.39c0,1.473-1.198,2.672-2.672,2.672h-6.948V71.616h6.948 c1.474,0,2.672,1.199,2.672,2.672V91.39z"/> </g> </g> <g> <g> <path d="M484.743,440.384h-6.948v-22.447h17.637c4.428,0,8.017-3.589,8.017-8.017c0-4.427-3.588-8.017-8.017-8.017h-17.637v-9.086 c0-4.427-3.588-8.017-8.017-8.017c-4.428,0-8.017,3.589-8.017,8.017v9.086h-6.948c-10.314,0-18.706,8.392-18.706,18.706v17.102 c0,10.314,8.392,18.706,18.706,18.706h6.948v22.447h-17.637c-4.428,0-8.017,3.589-8.017,8.017c0,4.427,3.588,8.017,8.017,8.017 h17.637v9.086c0,4.427,3.588,8.017,8.017,8.017c4.428,0,8.017-3.589,8.017-8.017v-9.086h6.948 c10.314,0,18.706-8.392,18.706-18.706V459.09C503.449,448.776,495.057,440.384,484.743,440.384z M461.762,440.384h-6.948 c-1.474,0-2.672-1.199-2.672-2.672V420.61c0-1.473,1.198-2.672,2.672-2.672h6.948V440.384z M487.415,476.192 c0,1.473-1.198,2.672-2.672,2.672h-6.948v-22.447h6.948c1.474,0,2.672,1.199,2.672,2.672V476.192z"/> </g> </g> <g> <g> <path d="M65.737,440.384h-6.948v-22.447h17.637c4.428,0,8.017-3.589,8.017-8.017c0-4.427-3.588-8.017-8.017-8.017H58.789v-9.086 c0-4.427-3.588-8.017-8.017-8.017c-4.428,0-8.017,3.589-8.017,8.017v9.086h-6.948c-10.314,0-18.706,8.392-18.706,18.706v17.102 c0,10.314,8.392,18.706,18.706,18.706h6.948v22.447H25.119c-4.428,0-8.017,3.589-8.017,8.017c0,4.427,3.588,8.017,8.017,8.017 h17.637v9.086c0,4.427,3.588,8.017,8.017,8.017c4.428,0,8.017-3.589,8.017-8.017v-9.086h6.948 c10.314,0,18.706-8.392,18.706-18.706V459.09C84.443,448.776,76.051,440.384,65.737,440.384z M42.756,440.384h-6.948 c-1.474,0-2.672-1.199-2.672-2.672V420.61c0-1.473,1.198-2.672,2.672-2.672h6.948V440.384z M68.409,476.192 c0,1.473-1.198,2.672-2.672,2.672h-6.948v-22.447h6.948c1.474,0,2.672,1.199,2.672,2.672V476.192z"/> </g> </g> </g>
</svg>